# xmcd CD database file
#
# Track frame offsets:
#	150
#	12793
#	22255
#	33000
#	44485
#	54654
#	68093
#	81491
#	92569
#	105345
#	116486
#	127815
#	138470
#	152081
#	163653
#
# Disc length: 2326 seconds
#
# Revision: 6
# Processed by: cddbd v1.5.2PL0 Copyright (c) Steve Scherf et al.
# Submitted via: CDex 1.51
#
DISCID=bc09140f
DTITLE=Various Artist - Classic Country Stars - CD 1
DYEAR=1900
DGENRE=Country
TTITLE0=Jonny Cash - I Walk The Line
TTITLE1=Elvis Presley - Don't Be Cruel (To A Heart That's True)
TTITLE2=Jim Reevers - He'll Have To Go
TTITLE3=Don Gibson - Oh, Lonesome Me
TTITLE4=Conway Twitty - it's Only Make Believe
TTITLE5=Hank Locklin - Please Help Me I'm Falling
TTITLE6=Jerry Lee Lewis - You Win Again
TTITLE7=Ferlin Husky - Gone
TTITLE8=George Jones - White Lighting
TTITLE9=Faron Young - Hello Walls
TTITLE10=Marty Robbins - Singing The Blues
TTITLE11=Leroy Van Dyke - Walk on By
TTITLE12=Claude King - Wolverton Mountain
TTITLE13=Johnny Horton - Battle of New Orleans
TTITLE14=Everly Brothers - Cathy's Clown
EXTD=
EXTT0=
EXTT1=
EXTT2=
EXTT3=
EXTT4=
EXTT5=
EXTT6=
EXTT7=
EXTT8=
EXTT9=
EXTT10=
EXTT11=
EXTT12=
EXTT13=
EXTT14=
PLAYORDER=
